<?xml version="1.0" encoding="UTF-8"?>
<!DOCTYPE svg PUBLIC "-//W3C//DTD SVG 1.1//EN" "http://www.w3.org/Graphics/SVG/1.1/DTD/svg11.dtd">
<svg xmlns="http://www.w3.org/2000/svg" version="1.1" width="368px" height="352px" style="shape-rendering:geometricPrecision; text-rendering:geometricPrecision; image-rendering:optimizeQuality; fill-rule:evenodd; clip-rule:evenodd" xmlns:xlink="http://www.w3.org/1999/xlink">
<g><path style="opacity:0.973" fill="#1e1e1d" d="M 184.5,50.5 C 216.046,49.7146 244.712,58.2146 270.5,76C 277.697,83.5314 285.197,90.6981 293,97.5C 301.496,109.993 307.996,123.493 312.5,138C 312.265,138.873 311.931,139.707 311.5,140.5C 313.57,146.348 315.07,152.348 316,158.5C 322.583,215.831 301.416,259.665 252.5,290C 227.006,301.309 200.34,305.643 172.5,303C 149.031,300.092 128.031,291.426 109.5,277C 93.5901,263.999 81.4235,248.166 73,229.5C 62.3274,199.671 60.6607,169.338 68,138.5C 82.1776,94.9897 111.344,67.1564 155.5,55C 165.234,52.9683 174.901,51.4683 184.5,50.5 Z"/></g>
<g><path style="opacity:0.992" fill="#2f2821" d="M 217.5,106.5 C 216.833,106.5 216.167,106.5 215.5,106.5C 213.565,105.85 211.565,105.517 209.5,105.5C 208.082,103.692 206.082,103.025 203.5,103.5C 203.303,113.87 202.303,123.87 200.5,133.5C 201.167,123.53 201.833,113.53 202.5,103.5C 203.242,102.713 204.075,102.047 205,101.5C 209.498,102.505 213.665,104.171 217.5,106.5 Z"/></g>
<g><path style="opacity:1" fill="#5a4733" d="M 209.5,105.5 C 208.417,105.461 207.417,105.127 206.5,104.5C 205.808,105.025 205.308,105.692 205,106.5C 204.5,115.494 204.334,124.494 204.5,133.5C 203.167,134.5 201.833,135.5 200.5,136.5C 198.598,139.337 197.931,142.671 198.5,146.5C 198.5,147.167 198.5,147.833 198.5,148.5C 197.732,149.263 197.232,150.263 197,151.5C 196.329,152.252 195.496,152.586 194.5,152.5C 196.078,147.723 196.911,142.723 197,137.5C 197.057,135.09 198.224,133.756 200.5,133.5C 202.303,123.87 203.303,113.87 203.5,103.5C 206.082,103.025 208.082,103.692 209.5,105.5 Z"/></g>
<g><path style="opacity:1" fill="#8b6d4b" d="M 209.5,105.5 C 211.565,105.517 213.565,105.85 215.5,106.5C 215.5,106.833 215.5,107.167 215.5,107.5C 212.214,107.071 209.047,107.071 206,107.5C 205.83,116.343 205.33,125.01 204.5,133.5C 204.334,124.494 204.5,115.494 205,106.5C 205.308,105.692 205.808,105.025 206.5,104.5C 207.417,105.127 208.417,105.461 209.5,105.5 Z"/></g>
<g><path style="opacity:0.992" fill="#2d2720" d="M 218.5,106.5 C 219.496,106.414 220.329,106.748 221,107.5C 221.499,112.489 221.666,117.489 221.5,122.5C 221.138,117.579 220.138,112.913 218.5,108.5C 218.5,107.833 218.5,107.167 218.5,106.5 Z"/></g>
<g><path style="opacity:1" fill="#ae895d" d="M 215.5,107.5 C 215.833,107.5 216.167,107.5 216.5,107.5C 217.242,113.118 217.742,118.785 218,124.5C 218.671,125.252 219.504,125.586 220.5,125.5C 223.054,126.388 225.721,126.721 228.5,126.5C 229.968,127.779 230.635,129.446 230.5,131.5C 229.778,131.082 229.278,130.416 229,129.5C 228.802,131.382 228.302,133.048 227.5,134.5C 227.512,130.554 225.512,128.887 221.5,129.5C 219.544,128.508 217.544,127.508 215.5,126.5C 215.827,121.456 215.494,116.456 214.5,111.5C 213.817,111.137 213.15,110.804 212.5,110.5C 211.081,109.549 209.415,109.216 207.5,109.5C 207.5,117.5 207.5,125.5 207.5,133.5C 205.771,135.727 203.438,136.727 200.5,136.5C 201.833,135.5 203.167,134.5 204.5,133.5C 205.33,125.01 205.83,116.343 206,107.5C 209.047,107.071 212.214,107.071 215.5,107.5 Z"/></g>
<g><path style="opacity:1" fill="#624d37" d="M 215.5,107.5 C 215.5,107.167 215.5,106.833 215.5,106.5C 216.167,106.5 216.833,106.5 217.5,106.5C 217.833,106.5 218.167,106.5 218.5,106.5C 218.5,107.167 218.5,107.833 218.5,108.5C 217.833,108.167 217.167,107.833 216.5,107.5C 216.167,107.5 215.833,107.5 215.5,107.5 Z"/></g>
<g><path style="opacity:1" fill="#8f704d" d="M 216.5,107.5 C 217.167,107.833 217.833,108.167 218.5,108.5C 218.042,114.387 218.708,120.054 220.5,125.5C 219.504,125.586 218.671,125.252 218,124.5C 217.742,118.785 217.242,113.118 216.5,107.5 Z"/></g>
<g><path style="opacity:1" fill="#574532" d="M 218.5,108.5 C 220.138,112.913 221.138,117.579 221.5,122.5C 223.449,124.563 225.782,125.896 228.5,126.5C 225.721,126.721 223.054,126.388 220.5,125.5C 218.708,120.054 218.042,114.387 218.5,108.5 Z"/></g>
<g><path style="opacity:1" fill="#413427" d="M 212.5,112.5 C 210.541,118.75 209.874,125.416 210.5,132.5C 209.509,125.687 209.175,118.687 209.5,111.5C 210.791,111.263 211.791,111.596 212.5,112.5 Z"/></g>
<g><path style="opacity:1" fill="#67513a" d="M 212.5,110.5 C 213.15,110.804 213.817,111.137 214.5,111.5C 215.494,116.456 215.827,121.456 215.5,126.5C 214.676,122.688 214.176,118.688 214,114.5C 213.722,113.584 213.222,112.918 212.5,112.5C 211.791,111.596 210.791,111.263 209.5,111.5C 209.175,118.687 209.509,125.687 210.5,132.5C 210.5,133.167 210.5,133.833 210.5,134.5C 208.533,126.903 207.866,118.903 208.5,110.5C 209.833,110.5 211.167,110.5 212.5,110.5 Z"/></g>
<g><path style="opacity:1" fill="#24221e" d="M 212.5,112.5 C 212.048,118.38 212.882,124.047 215,129.5C 218.196,130.512 221.363,131.678 224.5,133C 219.748,133.773 215.081,133.607 210.5,132.5C 209.874,125.416 210.541,118.75 212.5,112.5 Z"/></g>
<g><path style="opacity:1" fill="#816546" d="M 215.5,126.5 C 217.544,127.508 219.544,128.508 221.5,129.5C 218.687,129.975 216.687,128.975 215.5,126.5 Z"/></g>
<g><path style="opacity:1" fill="#493b2b" d="M 212.5,112.5 C 213.222,112.918 213.722,113.584 214,114.5C 214.176,118.688 214.676,122.688 215.5,126.5C 216.687,128.975 218.687,129.975 221.5,129.5C 223.68,130.102 225.346,131.435 226.5,133.5C 221.208,134.495 215.875,134.828 210.5,134.5C 210.5,133.833 210.5,133.167 210.5,132.5C 215.081,133.607 219.748,133.773 224.5,133C 221.363,131.678 218.196,130.512 215,129.5C 212.882,124.047 212.048,118.38 212.5,112.5 Z"/></g>
<g><path style="opacity:1" fill="#b28b60" d="M 230.5,131.5 C 230.5,132.167 230.5,132.833 230.5,133.5C 230.787,136.484 232.454,137.817 235.5,137.5C 235.5,140.833 235.5,144.167 235.5,147.5C 224.5,148.167 213.5,148.833 202.5,149.5C 201.5,150.167 200.5,150.833 199.5,151.5C 198.596,150.791 198.263,149.791 198.5,148.5C 198.5,147.833 198.5,147.167 198.5,146.5C 199.117,146.389 199.617,146.056 200,145.5C 200.498,142.518 200.665,139.518 200.5,136.5C 203.438,136.727 205.771,135.727 207.5,133.5C 208.574,135.216 210.241,136.216 212.5,136.5C 215.157,136.037 217.991,136.037 221,136.5C 223.61,136.467 225.777,135.8 227.5,134.5C 228.302,133.048 228.802,131.382 229,129.5C 229.278,130.416 229.778,131.082 230.5,131.5 Z"/></g>
<g><path style="opacity:1" fill="#876a49" d="M 212.5,110.5 C 211.167,110.5 209.833,110.5 208.5,110.5C 207.866,118.903 208.533,126.903 210.5,134.5C 215.875,134.828 221.208,134.495 226.5,133.5C 225.346,131.435 223.68,130.102 221.5,129.5C 225.512,128.887 227.512,130.554 227.5,134.5C 225.777,135.8 223.61,136.467 221,136.5C 217.991,136.037 215.157,136.037 212.5,136.5C 210.241,136.216 208.574,135.216 207.5,133.5C 207.5,125.5 207.5,117.5 207.5,109.5C 209.415,109.216 211.081,109.549 212.5,110.5 Z"/></g>
<g><path style="opacity:1" fill="#987852" d="M 200.5,136.5 C 200.665,139.518 200.498,142.518 200,145.5C 199.617,146.056 199.117,146.389 198.5,146.5C 197.931,142.671 198.598,139.337 200.5,136.5 Z"/></g>
<g><path style="opacity:1" fill="#735a3f" d="M 235.5,135.5 C 237.414,138.684 238.08,142.351 237.5,146.5C 236.77,142.939 236.103,139.273 235.5,135.5 Z"/></g>
<g><path style="opacity:1" fill="#9c7b54" d="M 230.5,133.5 C 231.82,134.942 233.486,135.608 235.5,135.5C 236.103,139.273 236.77,142.939 237.5,146.5C 238.234,147.708 238.567,149.041 238.5,150.5C 237.728,149.306 236.728,148.306 235.5,147.5C 235.5,144.167 235.5,140.833 235.5,137.5C 232.454,137.817 230.787,136.484 230.5,133.5 Z"/></g>
<g><path style="opacity:1" fill="#5d4a35" d="M 232.5,139.5 C 232.784,141.415 232.451,143.081 231.5,144.5C 228.5,145.167 225.5,145.833 222.5,146.5C 216.167,146.5 209.833,146.5 203.5,146.5C 202.631,144.283 202.298,141.95 202.5,139.5C 212.5,139.5 222.5,139.5 232.5,139.5 Z"/></g>
<g><path style="opacity:0.992" fill="#2f2821" d="M 231.5,144.5 C 222.167,144.5 212.833,144.5 203.5,144.5C 203.5,143.167 203.5,141.833 203.5,140.5C 212.73,141.373 222.063,141.373 231.5,140.5C 231.5,141.833 231.5,143.167 231.5,144.5 Z"/></g>
<g><path style="opacity:1" fill="#7a6043" d="M 232.5,139.5 C 233.461,141.265 233.795,143.265 233.5,145.5C 229.936,146.423 226.269,146.756 222.5,146.5C 225.5,145.833 228.5,145.167 231.5,144.5C 232.451,143.081 232.784,141.415 232.5,139.5 Z"/></g>
<g><path style="opacity:1" fill="#9e7c55" d="M 233.5,145.5 C 228.881,146.828 223.881,147.494 218.5,147.5C 213.322,147.499 208.322,147.166 203.5,146.5C 209.833,146.5 216.167,146.5 222.5,146.5C 226.269,146.756 229.936,146.423 233.5,145.5 Z"/></g>
<g><path style="opacity:1" fill="#7a6043" d="M 223.5,149.5 C 227.182,149.335 230.848,149.501 234.5,150C 236.155,151.444 236.822,153.278 236.5,155.5C 235.833,154.5 235.167,153.5 234.5,152.5C 234.389,151.883 234.056,151.383 233.5,151C 229.975,150.821 226.641,150.321 223.5,149.5 Z"/></g>
<g><path style="opacity:1" fill="#534230" d="M 209.5,149.5 C 214.167,149.5 218.833,149.5 223.5,149.5C 226.641,150.321 229.975,150.821 233.5,151C 234.056,151.383 234.389,151.883 234.5,152.5C 222.847,152.473 211.847,152.473 201.5,152.5C 201.611,151.883 201.944,151.383 202.5,151C 205.036,150.814 207.369,150.314 209.5,149.5 Z"/></g>
<g><path style="opacity:1" fill="#a58259" d="M 235.5,147.5 C 236.728,148.306 237.728,149.306 238.5,150.5C 240.011,153.005 241.345,155.672 242.5,158.5C 242.5,159.167 242.5,159.833 242.5,160.5C 241.833,164.833 241.167,169.167 240.5,173.5C 241.133,168.032 240.133,163.032 237.5,158.5C 237.443,157.391 237.11,156.391 236.5,155.5C 236.822,153.278 236.155,151.444 234.5,150C 230.848,149.501 227.182,149.335 223.5,149.5C 218.833,149.5 214.167,149.5 209.5,149.5C 207.167,149.5 204.833,149.5 202.5,149.5C 213.5,148.833 224.5,148.167 235.5,147.5 Z"/></g>
<g><path style="opacity:1" fill="#403428" d="M 234.5,152.5 C 235.167,153.5 235.833,154.5 236.5,155.5C 237.11,156.391 237.443,157.391 237.5,158.5C 235.087,157.32 234.087,155.32 234.5,152.5 Z"/></g>
<g><path style="opacity:1" fill="#a9855b" d="M 198.5,148.5 C 198.263,149.791 198.596,150.791 199.5,151.5C 198.293,155.955 196.793,160.288 195,164.5C 194.5,171.492 194.334,178.492 194.5,185.5C 194.5,185.833 194.5,186.167 194.5,186.5C 193.5,186.5 192.5,186.5 191.5,186.5C 191.46,178.813 191.793,171.146 192.5,163.5C 192.424,159.616 193.09,155.95 194.5,152.5C 195.496,152.586 196.329,152.252 197,151.5C 197.232,150.263 197.732,149.263 198.5,148.5 Z"/></g>
<g><path style="opacity:1" fill="#6c553c" d="M 202.5,149.5 C 204.833,149.5 207.167,149.5 209.5,149.5C 207.369,150.314 205.036,150.814 202.5,151C 201.944,151.383 201.611,151.883 201.5,152.5C 199.664,155.183 198.664,158.183 198.5,161.5C 197.442,162.6 196.608,163.934 196,165.5C 195.828,172.346 195.328,179.013 194.5,185.5C 194.334,178.492 194.5,171.492 195,164.5C 196.793,160.288 198.293,155.955 199.5,151.5C 200.5,150.833 201.5,150.167 202.5,149.5 Z"/></g>
<g><path style="opacity:0.992" fill="#2d2720" d="M 191.5,157.5 C 189.747,167.392 189.08,177.392 189.5,187.5C 188.344,180.011 188.178,172.345 189,164.5C 189.156,161.809 189.989,159.476 191.5,157.5 Z"/></g>
<g><path style="opacity:1" fill="#3e3226" d="M 198.5,161.5 C 196.861,170.31 196.028,179.31 196,188.5C 194.057,189.807 192.223,189.807 190.5,188.5C 192.099,188.768 193.432,188.434 194.5,187.5C 194.5,187.167 194.5,186.833 194.5,186.5C 194.5,186.167 194.5,185.833 194.5,185.5C 195.328,179.013 195.828,172.346 196,165.5C 196.608,163.934 197.442,162.6 198.5,161.5 Z"/></g>
<g><path style="opacity:1" fill="#8d6f4d" d="M 192.5,163.5 C 191.793,171.146 191.46,178.813 191.5,186.5C 192.5,186.5 193.5,186.5 194.5,186.5C 194.5,186.833 194.5,187.167 194.5,187.5C 193.167,187.5 191.833,187.5 190.5,187.5C 190.334,180.825 190.5,174.158 191,167.5C 191.21,165.942 191.71,164.609 192.5,163.5 Z"/></g>
<g><path style="opacity:1" fill="#5f4b36" d="M 194.5,152.5 C 193.09,155.95 192.424,159.616 192.5,163.5C 191.71,164.609 191.21,165.942 191,167.5C 190.5,174.158 190.334,180.825 190.5,187.5C 191.833,187.5 193.167,187.5 194.5,187.5C 193.432,188.434 192.099,188.768 190.5,188.5C 189.833,188.5 189.5,188.167 189.5,187.5C 189.08,177.392 189.747,167.392 191.5,157.5C 191.953,155.435 192.953,153.768 194.5,152.5 Z"/></g>
<g><path style="opacity:1" fill="#8b6d4b" d="M 242.5,158.5 C 243.322,160.389 244.155,162.389 245,164.5C 245.5,192.165 245.667,219.831 245.5,247.5C 244.5,247.5 243.5,247.5 242.5,247.5C 242.5,247.167 242.5,246.833 242.5,246.5C 243.833,233.851 244.499,220.851 244.5,207.5C 244.333,194.5 244.167,181.5 244,168.5C 242.748,165.986 242.248,163.32 242.5,160.5C 242.5,159.833 242.5,159.167 242.5,158.5 Z"/></g>
<g><path style="opacity:0.992" fill="#2e2720" d="M 239.5,171.5 C 232.913,173.461 225.913,174.128 218.5,173.5C 218.918,172.778 219.584,172.278 220.5,172C 227.252,171.809 233.585,171.642 239.5,171.5 Z"/></g>
<g><path style="opacity:1" fill="#71593f" d="M 163.5,171.5 C 163.5,171.833 163.5,172.167 163.5,172.5C 162.167,172.5 160.833,172.5 159.5,172.5C 159.5,175.5 159.5,178.5 159.5,181.5C 158.9,182.9 157.9,183.9 156.5,184.5C 158.183,180.369 158.85,176.036 158.5,171.5C 160.167,171.5 161.833,171.5 163.5,171.5 Z"/></g>
<g><path style="opacity:1" fill="#9a7953" d="M 163.5,172.5 C 164.5,173.167 165.5,173.833 166.5,174.5C 166.5,174.833 166.5,175.167 166.5,175.5C 164.742,175.123 163.075,174.456 161.5,173.5C 160.832,176.306 160.166,178.972 159.5,181.5C 159.5,178.5 159.5,175.5 159.5,172.5C 160.833,172.5 162.167,172.5 163.5,172.5 Z"/></g>
<g><path style="opacity:1" fill="#b48d61" d="M 166.5,175.5 C 166.414,176.496 166.748,177.329 167.5,178C 165.981,177.669 164.648,177.836 163.5,178.5C 164.056,181.111 164.056,183.778 163.5,186.5C 160.09,186.616 158.756,184.95 159.5,181.5C 160.166,178.972 160.832,176.306 161.5,173.5C 163.075,174.456 164.742,175.123 166.5,175.5 Z"/></g>
<g><path style="opacity:0.992" fill="#3a3025" d="M 163.5,172.5 C 163.5,172.167 163.5,171.833 163.5,171.5C 166.782,172.301 169.448,173.968 171.5,176.5C 170.833,176.5 170.167,176.5 169.5,176.5C 169.027,175.094 168.027,174.427 166.5,174.5C 165.5,173.833 164.5,173.167 163.5,172.5 Z"/></g>
<g><path style="opacity:1" fill="#534230" d="M 228.5,126.5 C 231.835,127.461 233.501,129.794 233.5,133.5C 234.93,133.421 236.264,133.754 237.5,134.5C 238.327,138.459 238.827,142.459 239,146.5C 241.789,151.626 244.122,156.959 246,162.5C 246.83,191.003 246.664,219.336 245.5,247.5C 245.667,219.831 245.5,192.165 245,164.5C 244.155,162.389 243.322,160.389 242.5,158.5C 241.345,155.672 240.011,153.005 238.5,150.5C 238.567,149.041 238.234,147.708 237.5,146.5C 238.08,142.351 237.414,138.684 235.5,135.5C 233.486,135.608 231.82,134.942 230.5,133.5C 230.5,132.833 230.5,132.167 230.5,131.5C 230.635,129.446 229.968,127.779 228.5,126.5 Z"/></g>
<g><path style="opacity:1" fill="#6b543c" d="M 166.5,175.5 C 166.5,175.167 166.5,174.833 166.5,174.5C 168.027,174.427 169.027,175.094 169.5,176.5C 168.391,176.443 167.391,176.11 166.5,175.5 Z"/></g>
<g><path style="opacity:0.992" fill="#2b261f" d="M 217.5,174.5 C 217.5,185.833 217.5,197.167 217.5,208.5C 217.5,208.833 217.5,209.167 217.5,209.5C 217.244,213.269 217.577,216.936 218.5,220.5C 217.833,220.833 217.167,221.167 216.5,221.5C 216.747,218.061 216.414,214.728 215.5,211.5C 216.167,199.167 216.833,186.833 217.5,174.5 Z"/></g>
<g><path style="opacity:1" fill="#51412f" d="M 237.5,158.5 C 240.133,163.032 241.133,168.032 240.5,173.5C 233.833,174.167 227.167,174.833 220.5,175.5C 220.167,175.5 219.833,175.5 219.5,175.5C 218.833,186.5 218.167,197.5 217.5,208.5C 217.5,197.167 217.5,185.833 217.5,174.5C 218.167,174.5 218.5,174.167 218.5,173.5C 225.913,174.128 232.913,173.461 239.5,171.5C 238.535,167.227 237.869,162.894 237.5,158.5 Z"/></g>
<g><path style="opacity:1" fill="#634e38" d="M 219.5,175.5 C 219.5,189.5 219.5,203.5 219.5,217.5C 218.833,214.833 218.167,212.167 217.5,209.5C 217.5,209.167 217.5,208.833 217.5,208.5C 218.167,197.5 218.833,186.5 219.5,175.5 Z"/></g>
<g><path style="opacity:1" fill="#8b6d4b" d="M 219.5,175.5 C 219.833,175.5 220.167,175.5 220.5,175.5C 220.333,189.504 220.5,203.504 221,217.5C 227.266,218.149 233.433,218.815 239.5,219.5C 233.5,219.5 227.5,219.5 221.5,219.5C 220.167,219.5 219.5,218.833 219.5,217.5C 219.5,203.5 219.5,189.5 219.5,175.5 Z"/></g>
<g><path style="opacity:1" fill="#4a3c2c" d="M 163.5,171.5 C 161.833,171.5 160.167,171.5 158.5,171.5C 158.85,176.036 158.183,180.369 156.5,184.5C 155.833,184.833 155.167,185.167 154.5,185.5C 154.5,185.167 154.5,184.833 154.5,184.5C 156.222,180.095 157.222,175.428 157.5,170.5C 159.735,170.205 161.735,170.539 163.5,171.5 Z"/></g>
<g><path style="opacity:1" fill="#ac875c" d="M 242.5,160.5 C 242.248,163.32 242.748,165.986 244,168.5C 244.167,181.5 244.333,194.5 244.5,207.5C 244.499,220.851 243.833,233.851 242.5,246.5C 233.143,246.832 223.81,246.498 214.5,245.5C 222.633,244.889 231.3,244.389 240.5,244C 241.827,236.068 241.827,228.235 240.5,220.5C 240.5,219.833 240.167,219.5 239.5,219.5C 233.433,218.815 227.266,218.149 221,217.5C 220.5,203.504 220.333,189.504 220.5,175.5C 227.167,174.833 233.833,174.167 240.5,173.5C 241.167,169.167 241.833,164.833 242.5,160.5 Z"/></g>
<g><path style="opacity:1" fill="#644f38" d="M 240.5,180.5 C 240.167,180.5 239.833,180.5 239.5,180.5C 235.016,179.781 230.683,179.781 226.5,180.5C 225.171,185.624 224.505,191.124 224.5,197C 224.667,202.5 224.833,208 225,213.5C 230.072,214.471 235.238,214.805 240.5,214.5C 235.36,215.488 230.026,215.821 224.5,215.5C 223.522,203.914 223.189,192.247 223.5,180.5C 223.611,179.883 223.944,179.383 224.5,179C 227.167,178.833 229.833,178.667 232.5,178.5C 235.59,178.522 238.257,179.188 240.5,180.5 Z"/></g>
<g><path style="opacity:1" fill="#574532" d="M 169.5,176.5 C 170.167,176.5 170.833,176.5 171.5,176.5C 172.504,177.683 173.338,179.016 174,180.5C 176.463,181.032 178.297,182.366 179.5,184.5C 174.737,183.748 171.404,181.082 169.5,176.5 Z"/></g>
<g><path style="opacity:1" fill="#5f4b36" d="M 163.5,178.5 C 164.71,178.932 165.71,179.599 166.5,180.5C 165.532,182.607 165.198,184.941 165.5,187.5C 163.228,188.319 160.894,188.985 158.5,189.5C 157.549,190.919 157.216,192.585 157.5,194.5C 157.167,194.5 156.833,194.5 156.5,194.5C 156.338,192.473 156.505,190.473 157,188.5C 159.277,187.883 161.444,187.216 163.5,186.5C 164.056,183.778 164.056,181.111 163.5,178.5 Z"/></g>
<g><path style="opacity:1" fill="#8c6e4c" d="M 223.5,180.5 C 223.189,192.247 223.522,203.914 224.5,215.5C 223.171,210.04 222.504,204.207 222.5,198C 222.501,191.99 222.834,186.157 223.5,180.5 Z"/></g>
<g><path style="opacity:0.992" fill="#332b22" d="M 226.5,180.5 C 226.5,181.5 226.5,182.5 226.5,183.5C 230.767,183.203 234.934,183.536 239,184.5C 239.49,183.207 239.657,181.873 239.5,180.5C 239.833,180.5 240.167,180.5 240.5,180.5C 240.5,191.833 240.5,203.167 240.5,214.5C 235.238,214.805 230.072,214.471 225,213.5C 224.833,208 224.667,202.5 224.5,197C 224.505,191.124 225.171,185.624 226.5,180.5 Z"/></g>
<g><path style="opacity:0.992" fill="#362d23" d="M 226.5,180.5 C 230.683,179.781 235.016,179.781 239.5,180.5C 235.124,181.355 230.79,181.355 226.5,180.5 Z"/></g>
<g><path style="opacity:1" fill="#1f1f1e" d="M 226.5,180.5 C 230.79,181.355 235.124,181.355 239.5,180.5C 239.657,181.873 239.49,183.207 239,184.5C 234.934,183.536 230.767,183.203 226.5,183.5C 226.5,182.5 226.5,181.5 226.5,180.5 Z"/></g>
<g><path style="opacity:1" fill="#826647" d="M 167.5,181.5 C 169.863,183.857 172.53,185.857 175.5,187.5C 171.432,187.438 168.765,185.438 167.5,181.5 Z"/></g>
<g><path style="opacity:0.992" fill="#382e24" d="M 154.5,184.5 C 154.5,184.833 154.5,185.167 154.5,185.5C 153.542,185.953 152.708,186.619 152,187.5C 151.501,191.486 151.334,195.486 151.5,199.5C 150.833,200.833 149.833,201.833 148.5,202.5C 150.182,197.072 151.015,191.405 151,185.5C 152.011,184.663 153.178,184.33 154.5,184.5 Z"/></g>
<g><path style="opacity:1" fill="#9e7d55" d="M 159.5,181.5 C 158.756,184.95 160.09,186.616 163.5,186.5C 161.444,187.216 159.277,187.883 157,188.5C 156.505,190.473 156.338,192.473 156.5,194.5C 155.21,193.942 154.377,192.942 154,191.5C 154,194.167 154,196.833 154,199.5C 151.6,201.729 149.433,204.063 147.5,206.5C 147.833,205.167 148.167,203.833 148.5,202.5C 149.833,201.833 150.833,200.833 151.5,199.5C 152.109,194.849 153.109,190.182 154.5,185.5C 155.167,185.167 155.833,184.833 156.5,184.5C 157.9,183.9 158.9,182.9 159.5,181.5 Z"/></g>
<g><path style="opacity:1" fill="#5d4a35" d="M 238.5,190.5 C 237.833,190.5 237.167,190.5 236.5,190.5C 233.5,190.5 230.5,190.5 227.5,190.5C 227.5,188.5 227.5,186.5 227.5,184.5C 230.85,184.335 234.183,184.502 237.5,185C 238.406,186.699 238.739,188.533 238.5,190.5 Z"/></g>
<g><path style="opacity:1" fill="#1e1f1e" d="M 165.5,187.5 C 168.522,187.804 171.522,188.304 174.5,189C 176.155,190.444 176.822,192.278 176.5,194.5C 170.455,194.697 164.455,194.363 158.5,193.5C 158.5,192.167 158.5,190.833 158.5,189.5C 160.894,188.985 163.228,188.319 165.5,187.5 Z"/></g>
<g><path style="opacity:1" fill="#b38c60" d="M 235.5,186.5 C 235.5,187.167 235.5,187.833 235.5,188.5C 227.5,187.833 227.5,187.167 235.5,186.5 Z"/></g>
<g><path style="opacity:1" fill="#947550" d="M 235.5,186.5 C 227.5,187.167 227.5,187.833 235.5,188.5C 233.393,189.468 231.059,189.802 228.5,189.5C 228.5,188.167 228.5,186.833 228.5,185.5C 231.059,185.198 233.393,185.532 235.5,186.5 Z"/></g>
<g><path style="opacity:1" fill="#6c553c" d="M 154.5,185.5 C 153.109,190.182 152.109,194.849 151.5,199.5C 151.334,195.486 151.501,191.486 152,187.5C 152.708,186.619 153.542,185.953 154.5,185.5 Z"/></g>
<g><path style="opacity:1" fill="#493b2b" d="M 166.5,180.5 C 167.167,180.5 167.5,180.833 167.5,181.5C 168.765,185.438 171.432,187.438 175.5,187.5C 176.833,188.167 177.833,189.167 178.5,190.5C 178.167,194.833 180.167,196.833 184.5,196.5C 186.306,197.024 187.972,197.691 189.5,198.5C 188.5,198.5 187.5,198.5 186.5,198.5C 185.833,198.5 185.167,198.5 184.5,198.5C 181.473,198.014 178.807,196.68 176.5,194.5C 176.822,192.278 176.155,190.444 174.5,189C 171.522,188.304 168.522,187.804 165.5,187.5C 165.198,184.941 165.532,182.607 166.5,180.5 Z"/></g>
<g><path style="opacity:1" fill="#816646" d="M 178.5,190.5 C 179.268,191.263 179.768,192.263 180,193.5C 181.878,194.053 183.378,195.053 184.5,196.5C 180.167,196.833 178.167,194.833 178.5,190.5 Z"/></g>
<g><path style="opacity:1" fill="#614d37" d="M 180.5,185.5 C 182.877,188.214 185.544,190.547 188.5,192.5C 186.801,192.66 185.134,192.494 183.5,192C 182.588,189.749 181.588,187.583 180.5,185.5 Z"/></g>
<g><path style="opacity:1" fill="#1f1f1d" d="M 236.5,190.5 C 237.167,190.5 237.833,190.5 238.5,190.5C 239.833,191.833 239.833,193.167 238.5,194.5C 237.391,194.443 236.391,194.11 235.5,193.5C 234.391,192.71 233.058,192.21 231.5,192C 233.382,191.802 235.048,191.302 236.5,190.5 Z"/></g>
<g><path style="opacity:1" fill="#aa855b" d="M 166.5,175.5 C 167.391,176.11 168.391,176.443 169.5,176.5C 171.404,181.082 174.737,183.748 179.5,184.5C 180.167,184.5 180.5,184.833 180.5,185.5C 181.588,187.583 182.588,189.749 183.5,192C 185.134,192.494 186.801,192.66 188.5,192.5C 189.965,193.737 191.632,194.737 193.5,195.5C 194.974,199.314 197.641,201.648 201.5,202.5C 201.611,203.117 201.944,203.617 202.5,204C 198.833,204.667 195.167,204.667 191.5,204C 192.056,203.617 192.389,203.117 192.5,202.5C 192.715,200.821 192.048,199.821 190.5,199.5C 190.5,198.833 190.167,198.5 189.5,198.5C 187.972,197.691 186.306,197.024 184.5,196.5C 183.378,195.053 181.878,194.053 180,193.5C 179.768,192.263 179.268,191.263 178.5,190.5C 177.833,189.167 176.833,188.167 175.5,187.5C 172.53,185.857 169.863,183.857 167.5,181.5C 167.5,180.833 167.167,180.5 166.5,180.5C 165.71,179.599 164.71,178.932 163.5,178.5C 164.648,177.836 165.981,177.669 167.5,178C 166.748,177.329 166.414,176.496 166.5,175.5 Z"/></g>
<g><path style="opacity:1" fill="#a9855b" d="M 156.5,194.5 C 156.833,194.5 157.167,194.5 157.5,194.5C 157.414,195.496 157.748,196.329 158.5,197C 163.155,197.499 167.821,197.666 172.5,197.5C 173.167,197.5 173.5,197.833 173.5,198.5C 173.389,199.117 173.056,199.617 172.5,200C 166.613,200.616 160.947,201.282 155.5,202C 153.536,203.451 152.203,205.284 151.5,207.5C 149.598,210.337 148.931,213.671 149.5,217.5C 148.691,215.708 148.191,213.708 148,211.5C 147.844,214.191 147.011,216.524 145.5,218.5C 145.448,216.097 145.781,213.764 146.5,211.5C 146.5,210.167 146.5,208.833 146.5,207.5C 147.167,207.5 147.5,207.167 147.5,206.5C 149.433,204.063 151.6,201.729 154,199.5C 154,196.833 154,194.167 154,191.5C 154.377,192.942 155.21,193.942 156.5,194.5 Z"/></g>
<g><path style="opacity:0.992" fill="#312a22" d="M 158.5,189.5 C 158.5,190.833 158.5,192.167 158.5,193.5C 164.455,194.363 170.455,194.697 176.5,194.5C 178.807,196.68 181.473,198.014 184.5,198.5C 182.08,198.708 179.747,198.374 177.5,197.5C 176.828,198.949 176.161,200.282 175.5,201.5C 175.5,199.833 175.5,198.167 175.5,196.5C 174.5,196.5 173.5,196.5 172.5,196.5C 168.154,196.666 163.821,196.499 159.5,196C 158.956,195.283 158.289,194.783 157.5,194.5C 157.216,192.585 157.549,190.919 158.5,189.5 Z"/></g>
<g><path style="opacity:1" fill="#554431" d="M 188.5,192.5 C 191.857,192.216 194.191,193.549 195.5,196.5C 194.833,196.167 194.167,195.833 193.5,195.5C 191.632,194.737 189.965,193.737 188.5,192.5 Z"/></g>
<g><path style="opacity:1" fill="#51412f" d="M 229.5,194.5 C 231.265,193.539 233.265,193.205 235.5,193.5C 236.391,194.11 237.391,194.443 238.5,194.5C 238.739,196.467 238.406,198.301 237.5,200C 234.633,200.801 231.966,200.634 229.5,199.5C 232.388,200.01 234.721,199.344 236.5,197.5C 236.586,196.504 236.252,195.671 235.5,195C 233.527,194.505 231.527,194.338 229.5,194.5 Z"/></g>
<g><path style="opacity:1" fill="#6a533b" d="M 157.5,194.5 C 158.289,194.783 158.956,195.283 159.5,196C 163.821,196.499 168.154,196.666 172.5,196.5C 172.5,196.833 172.5,197.167 172.5,197.5C 167.821,197.666 163.155,197.499 158.5,197C 157.748,196.329 157.414,195.496 157.5,194.5 Z"/></g>
<g><path style="opacity:1" fill="#826647" d="M 193.5,195.5 C 194.167,195.833 194.833,196.167 195.5,196.5C 196.167,197.833 197.167,198.833 198.5,199.5C 199.59,200.857 200.924,201.857 202.5,202.5C 202.167,202.5 201.833,202.5 201.5,202.5C 197.641,201.648 194.974,199.314 193.5,195.5 Z"/></g>
<g><path style="opacity:1" fill="#493a2b" d="M 195.5,196.5 C 197.5,196.5 198.5,197.5 198.5,199.5C 197.167,198.833 196.167,197.833 195.5,196.5 Z"/></g>
<g><path style="opacity:1" fill="#4d3e2d" d="M 172.5,197.5 C 172.5,197.167 172.5,196.833 172.5,196.5C 173.5,196.5 174.5,196.5 175.5,196.5C 175.5,198.167 175.5,199.833 175.5,201.5C 171.668,203.717 168.001,204.05 164.5,202.5C 167.305,201.681 170.305,201.181 173.5,201C 174.774,200.023 174.774,199.189 173.5,198.5C 173.5,197.833 173.167,197.5 172.5,197.5 Z"/></g>
<g><path style="opacity:1" fill="#1f1f1e" d="M 184.5,198.5 C 185.167,198.5 185.833,198.5 186.5,198.5C 186.953,199.458 187.619,200.292 188.5,201C 186.973,202.032 185.64,203.199 184.5,204.5C 184.167,204.5 183.833,204.5 183.5,204.5C 180.455,205.279 177.789,206.613 175.5,208.5C 170.4,210.353 165.4,212.353 160.5,214.5C 157.428,214.817 154.428,214.484 151.5,213.5C 152.172,211.47 152.838,209.47 153.5,207.5C 155.134,206.793 156.468,205.627 157.5,204C 159.708,203.809 161.708,203.309 163.5,202.5C 163.833,202.5 164.167,202.5 164.5,202.5C 168.001,204.05 171.668,203.717 175.5,201.5C 176.161,200.282 176.828,198.949 177.5,197.5C 179.747,198.374 182.08,198.708 184.5,198.5 Z"/></g>
<g><path style="opacity:1" fill="#967651" d="M 228.5,194.5 C 228.833,194.5 229.167,194.5 229.5,194.5C 231.527,194.338 233.527,194.505 235.5,195C 236.252,195.671 236.586,196.504 236.5,197.5C 233.946,198.388 231.279,198.721 228.5,198.5C 228.5,197.167 228.5,195.833 228.5,194.5 Z"/></g>
<g><path style="opacity:1" fill="#b58e61" d="M 229.5,195.5 C 231.288,195.215 232.955,195.548 234.5,196.5C 233.667,196.833 232.833,197.167 232,197.5C 230.624,197.316 229.791,196.649 229.5,195.5 Z"/></g>
<g><path style="opacity:0.992" fill="#392f25" d="M 186.5,198.5 C 187.5,198.5 188.5,198.5 189.5,198.5C 190.167,198.5 190.5,198.833 190.5,199.5C 191.833,200.5 191.833,201.5 190.5,202.5C 188.685,203.63 186.685,204.296 184.5,204.5C 185.64,203.199 186.973,202.032 188.5,201C 187.619,200.292 186.953,199.458 186.5,198.5 Z"/></g>
<g><path style="opacity:1" fill="#6b553c" d="M 228.5,194.5 C 228.5,195.833 228.5,197.167 228.5,198.5C 231.279,198.721 233.946,198.388 236.5,197.5C 234.721,199.344 232.388,200.01 229.5,199.5C 228.351,199.209 227.684,198.376 227.5,197C 227.528,195.93 227.861,195.097 228.5,194.5 Z"/></g>
<g><path style="opacity:1" fill="#6a543b" d="M 173.5,198.5 C 174.774,199.189 174.774,200.023 173.5,201C 170.305,201.181 167.305,201.681 164.5,202.5C 164.167,202.5 163.833,202.5 163.5,202.5C 159.116,201.576 155.782,202.909 153.5,206.5C 152.833,206.833 152.167,207.167 151.5,207.5C 152.203,205.284 153.536,203.451 155.5,202C 160.947,201.282 166.613,200.616 172.5,200C 173.056,199.617 173.389,199.117 173.5,198.5 Z"/></g>
<g><path style="opacity:1" fill="#6e573d" d="M 190.5,199.5 C 192.048,199.821 192.715,200.821 192.5,202.5C 191.833,202.5 191.167,202.5 190.5,202.5C 191.833,201.5 191.833,200.5 190.5,199.5 Z"/></g>
<g><path style="opacity:1" fill="#584633" d="M 198.5,199.5 C 201.908,200.367 205.242,201.533 208.5,203C 209.823,203.816 210.489,204.983 210.5,206.5C 209.833,206.167 209.167,205.833 208.5,205.5C 206.967,203.755 204.967,202.755 202.5,202.5C 200.924,201.857 199.59,200.857 198.5,199.5 Z"/></g>
<g><path style="opacity:0.992" fill="#342c23" d="M 163.5,202.5 C 161.708,203.309 159.708,203.809 157.5,204C 156.468,205.627 155.134,206.793 153.5,207.5C 153.5,207.167 153.5,206.833 153.5,206.5C 155.782,202.909 159.116,201.576 163.5,202.5 Z"/></g>
<g><path style="opacity:1" fill="#977752" d="M 190.5,202.5 C 191.167,202.5 191.833,202.5 192.5,202.5C 192.389,203.117 192.056,203.617 191.5,204C 195.167,204.667 198.833,204.667 202.5,204C 201.944,203.617 201.611,203.117 201.5,202.5C 201.833,202.5 202.167,202.5 202.5,202.5C 204.967,202.755 206.967,203.755 208.5,205.5C 205.752,205.402 205.086,206.402 206.5,208.5C 205.833,208.5 205.167,208.5 204.5,208.5C 200.352,205.047 196.019,204.714 191.5,207.5C 190.833,207.5 190.167,207.5 189.5,207.5C 190.643,205.899 189.976,205.233 187.5,205.5C 185.307,205.719 183.307,206.385 181.5,207.5C 182.167,206.5 182.833,205.5 183.5,204.5C 183.833,204.5 184.167,204.5 184.5,204.5C 186.685,204.296 188.685,203.63 190.5,202.5 Z"/></g>
<g><path style="opacity:1" fill="#52412f" d="M 148.5,202.5 C 148.167,203.833 147.833,205.167 147.5,206.5C 147.5,207.167 147.167,207.5 146.5,207.5C 146.12,205.302 146.787,203.635 148.5,202.5 Z"/></g>
<g><path style="opacity:1" fill="#4c3d2c" d="M 183.5,204.5 C 182.833,205.5 182.167,206.5 181.5,207.5C 179.901,207.232 178.568,207.566 177.5,208.5C 176.833,208.5 176.167,208.5 175.5,208.5C 177.789,206.613 180.455,205.279 183.5,204.5 Z"/></g>
<g><path style="opacity:1" fill="#644f38" d="M 228.5,207.5 C 227.549,206.081 227.216,204.415 227.5,202.5C 230.833,202.5 234.167,202.5 237.5,202.5C 237.739,204.467 237.406,206.301 236.5,208C 233.633,208.801 230.966,208.634 228.5,207.5 Z"/></g>
<g><path style="opacity:1" fill="#a38158" d="M 228.5,207.5 C 228.5,206.5 228.5,205.5 228.5,204.5C 230.833,204.5 233.167,204.5 235.5,204.5C 235.5,205.5 235.5,206.5 235.5,207.5C 233.167,207.5 230.833,207.5 228.5,207.5 Z"/></g>
<g><path style="opacity:1" fill="#6b543c" d="M 175.5,208.5 C 176.167,208.5 176.833,208.5 177.5,208.5C 173.267,211.201 168.767,213.534 164,215.5C 160.974,216.872 157.807,217.538 154.5,217.5C 154.5,217.167 154.5,216.833 154.5,216.5C 156.898,216.741 158.898,216.074 160.5,214.5C 165.4,212.353 170.4,210.353 175.5,208.5 Z"/></g>
<g><path style="opacity:1" fill="#1e1e1e" d="M 226.5,208.5 C 230.454,210.711 234.62,211.044 239,209.5C 239.49,210.793 239.657,212.127 239.5,213.5C 235.167,213.5 230.833,213.5 226.5,213.5C 226.5,211.833 226.5,210.167 226.5,208.5 Z"/></g>
<g><path style="opacity:1" fill="#4d3d2d" d="M 146.5,207.5 C 146.5,208.833 146.5,210.167 146.5,211.5C 145.015,213.249 144.015,215.249 143.5,217.5C 143.025,213.584 144.025,210.251 146.5,207.5 Z"/></g>
<g><path style="opacity:1" fill="#b58e61" d="M 149.5,217.5 C 149.833,217.5 150.167,217.5 150.5,217.5C 154.312,218.324 158.312,218.824 162.5,219C 163.791,220.292 163.791,221.458 162.5,222.5C 161.5,222.5 160.5,222.5 159.5,222.5C 157.883,221.962 156.216,221.629 154.5,221.5C 151.974,220.343 149.307,220.343 146.5,221.5C 145.596,220.791 145.263,219.791 145.5,218.5C 147.011,216.524 147.844,214.191 148,211.5C 148.191,213.708 148.691,215.708 149.5,217.5 Z"/></g>
<g><path style="opacity:1" fill="#7f6445" d="M 151.5,207.5 C 150.597,210.391 150.264,213.391 150.5,216.5C 151.833,216.5 153.167,216.5 154.5,216.5C 154.5,216.833 154.5,217.167 154.5,217.5C 153.167,217.5 151.833,217.5 150.5,217.5C 150.167,217.5 149.833,217.5 149.5,217.5C 148.931,213.671 149.598,210.337 151.5,207.5 Z"/></g>
<g><path style="opacity:1" fill="#493b2c" d="M 153.5,206.5 C 153.5,206.833 153.5,207.167 153.5,207.5C 152.838,209.47 152.172,211.47 151.5,213.5C 154.428,214.484 157.428,214.817 160.5,214.5C 158.898,216.074 156.898,216.741 154.5,216.5C 153.167,216.5 151.833,216.5 150.5,216.5C 150.264,213.391 150.597,210.391 151.5,207.5C 152.167,207.167 152.833,206.833 153.5,206.5 Z"/></g>
<g><path style="opacity:1" fill="#68523b" d="M 146.5,211.5 C 145.781,213.764 145.448,216.097 145.5,218.5C 144.833,218.833 144.167,219.167 143.5,219.5C 143.5,219.167 143.5,218.833 143.5,218.5C 143.5,218.167 143.5,217.833 143.5,217.5C 144.015,215.249 145.015,213.249 146.5,211.5 Z"/></g>
<g><path style="opacity:1" fill="#4b3c2c" d="M 217.5,209.5 C 218.167,212.167 218.833,214.833 219.5,217.5C 219.5,218.833 220.167,219.5 221.5,219.5C 221.5,219.833 221.5,220.167 221.5,220.5C 220.5,220.5 219.5,220.5 218.5,220.5C 217.577,216.936 217.244,213.269 217.5,209.5 Z"/></g>
<g><path style="opacity:1" fill="#a58259" d="M 189.5,207.5 C 187.326,207.75 185.659,208.75 184.5,210.5C 184.167,210.5 183.833,210.5 183.5,210.5C 181.973,210.427 180.973,211.094 180.5,212.5C 180.167,212.5 179.833,212.5 179.5,212.5C 174.83,214.169 170.163,215.836 165.5,217.5C 165.561,219.592 166.561,221.092 168.5,222C 170.868,222.856 173.202,223.69 175.5,224.5C 177.755,226.38 180.422,227.38 183.5,227.5C 184.514,228.674 185.847,229.34 187.5,229.5C 191.958,232.228 196.958,233.228 202.5,232.5C 202.082,233.222 201.416,233.722 200.5,234C 202.847,234.334 205.181,234.167 207.5,233.5C 207.281,234.675 207.614,235.675 208.5,236.5C 209.5,233.833 210.5,231.167 211.5,228.5C 211.253,227.287 210.586,226.62 209.5,226.5C 209.5,225.833 209.5,225.167 209.5,224.5C 210.645,220.689 210.812,216.689 210,212.5C 208.624,211.295 207.458,209.962 206.5,208.5C 205.086,206.402 205.752,205.402 208.5,205.5C 209.167,205.833 209.833,206.167 210.5,206.5C 212.736,210.3 214.402,214.3 215.5,218.5C 213.94,222.987 212.94,227.653 212.5,232.5C 211.094,232.973 210.427,233.973 210.5,235.5C 210.5,236.167 210.5,236.833 210.5,237.5C 210.167,237.5 209.833,237.5 209.5,237.5C 208.094,237.973 207.427,238.973 207.5,240.5C 207.167,241.167 206.833,241.833 206.5,242.5C 204.486,242.392 202.82,243.058 201.5,244.5C 200.791,243.596 199.791,243.263 198.5,243.5C 198.5,243.167 198.5,242.833 198.5,242.5C 200.795,241.864 202.461,240.531 203.5,238.5C 205.048,238.179 205.715,237.179 205.5,235.5C 201.167,235.5 196.833,235.5 192.5,235.5C 190.585,235.784 188.919,235.451 187.5,234.5C 187.179,232.952 186.179,232.285 184.5,232.5C 183.833,232.5 183.167,232.5 182.5,232.5C 182.027,231.094 181.027,230.427 179.5,230.5C 176.857,229.546 174.19,228.546 171.5,227.5C 168.566,225.54 165.566,223.873 162.5,222.5C 163.791,221.458 163.791,220.292 162.5,219C 158.312,218.824 154.312,218.324 150.5,217.5C 151.833,217.5 153.167,217.5 154.5,217.5C 157.807,217.538 160.974,216.872 164,215.5C 168.767,213.534 173.267,211.201 177.5,208.5C 178.568,207.566 179.901,207.232 181.5,207.5C 183.307,206.385 185.307,205.719 187.5,205.5C 189.976,205.233 190.643,205.899 189.5,207.5 Z"/></g>
<g><path style="opacity:0.992" fill="#352c23" d="M 191.5,208.5 C 189.52,210.451 187.187,211.951 184.5,213C 181.26,214.4 177.927,215.567 174.5,216.5C 176.167,215.167 177.833,213.833 179.5,212.5C 179.833,212.5 180.167,212.5 180.5,212.5C 182.027,212.573 183.027,211.906 183.5,210.5C 183.833,210.5 184.167,210.5 184.5,210.5C 186.833,209.833 189.167,209.167 191.5,208.5 Z"/></g>
<g><path style="opacity:1" fill="#69533b" d="M 183.5,210.5 C 183.027,211.906 182.027,212.573 180.5,212.5C 180.973,211.094 181.973,210.427 183.5,210.5 Z"/></g>
<g><path style="opacity:1" fill="#6a543b" d="M 189.5,207.5 C 190.167,207.5 190.833,207.5 191.5,207.5C 191.5,207.833 191.5,208.167 191.5,208.5C 189.167,209.167 186.833,209.833 184.5,210.5C 185.659,208.75 187.326,207.75 189.5,207.5 Z"/></g>
<g><path style="opacity:1" fill="#1f1f1e" d="M 191.5,208.5 C 194.833,208.5 198.167,208.5 201.5,208.5C 202.5,208.5 203.5,208.5 204.5,208.5C 204.782,209.778 205.449,210.778 206.5,211.5C 208.183,215.636 208.85,219.969 208.5,224.5C 207.662,224.842 207.328,225.508 207.5,226.5C 207.5,226.833 207.5,227.167 207.5,227.5C 206.167,227.5 205.5,228.167 205.5,229.5C 205.167,229.5 204.833,229.5 204.5,229.5C 202.173,229.247 200.173,229.914 198.5,231.5C 194.972,230.079 191.306,229.412 187.5,229.5C 186.817,227.824 185.483,227.157 183.5,227.5C 181.293,225.485 178.626,224.485 175.5,224.5C 175.631,223.624 175.298,222.957 174.5,222.5C 166.545,220.58 166.545,218.58 174.5,216.5C 177.927,215.567 181.26,214.4 184.5,213C 187.187,211.951 189.52,210.451 191.5,208.5 Z"/></g>
<g><path style="opacity:0.992" fill="#332b22" d="M 201.5,208.5 C 198.167,208.5 194.833,208.5 191.5,208.5C 191.5,208.167 191.5,207.833 191.5,207.5C 193.547,207.489 195.547,207.156 197.5,206.5C 199.171,206.668 200.504,207.335 201.5,208.5 Z"/></g>
<g><path style="opacity:1" fill="#584532" d="M 204.5,208.5 C 203.5,208.5 202.5,208.5 201.5,208.5C 200.504,207.335 199.171,206.668 197.5,206.5C 195.547,207.156 193.547,207.489 191.5,207.5C 196.019,204.714 200.352,205.047 204.5,208.5 Z"/></g>
<g><path style="opacity:0.992" fill="#302821" d="M 206.5,211.5 C 207.458,211.953 208.292,212.619 209,213.5C 209.499,217.152 209.665,220.818 209.5,224.5C 209.167,224.5 208.833,224.5 208.5,224.5C 208.85,219.969 208.183,215.636 206.5,211.5 Z"/></g>
<g><path style="opacity:1" fill="#5c4934" d="M 204.5,208.5 C 205.167,208.5 205.833,208.5 206.5,208.5C 207.458,209.962 208.624,211.295 210,212.5C 210.812,216.689 210.645,220.689 209.5,224.5C 209.665,220.818 209.499,217.152 209,213.5C 208.292,212.619 207.458,211.953 206.5,211.5C 205.449,210.778 204.782,209.778 204.5,208.5 Z"/></g>
<g><path style="opacity:1" fill="#534230" d="M 210.5,206.5 C 211.239,206.369 211.906,206.536 212.5,207C 213.399,208.652 214.399,210.152 215.5,211.5C 216.414,214.728 216.747,218.061 216.5,221.5C 214.62,225.924 213.454,230.591 213,235.5C 212.292,236.381 211.458,237.047 210.5,237.5C 210.5,236.833 210.5,236.167 210.5,235.5C 211.906,235.027 212.573,234.027 212.5,232.5C 212.94,227.653 213.94,222.987 215.5,218.5C 214.402,214.3 212.736,210.3 210.5,206.5 Z"/></g>
<g><path style="opacity:1" fill="#50402f" d="M 179.5,212.5 C 177.833,213.833 176.167,215.167 174.5,216.5C 166.545,218.58 166.545,220.58 174.5,222.5C 175.298,222.957 175.631,223.624 175.5,224.5C 173.202,223.69 170.868,222.856 168.5,222C 166.561,221.092 165.561,219.592 165.5,217.5C 170.163,215.836 174.83,214.169 179.5,212.5 Z"/></g>
<g><path style="opacity:1" fill="#4c3d2d" d="M 143.5,218.5 C 143.5,218.833 143.5,219.167 143.5,219.5C 142.833,219.5 142.5,219.833 142.5,220.5C 141.167,221.5 139.833,222.5 138.5,223.5C 139.167,220.833 140.833,219.167 143.5,218.5 Z"/></g>
<g><path style="opacity:1" fill="#644f38" d="M 221.5,220.5 C 221.5,220.167 221.5,219.833 221.5,219.5C 227.5,219.5 233.5,219.5 239.5,219.5C 240.167,219.5 240.5,219.833 240.5,220.5C 240.5,220.833 240.5,221.167 240.5,221.5C 240.167,221.5 239.833,221.5 239.5,221.5C 233.69,220.51 227.69,220.177 221.5,220.5 Z"/></g>
<g><path style="opacity:1" fill="#7c6244" d="M 154.5,221.5 C 151.794,221.575 149.127,221.908 146.5,222.5C 146.5,222.167 146.5,221.833 146.5,221.5C 149.307,220.343 151.974,220.343 154.5,221.5 Z"/></g>
<g><path style="opacity:1" fill="#7f6445" d="M 142.5,220.5 C 141.148,223.165 139.482,225.498 137.5,227.5C 137.833,226.167 138.167,224.833 138.5,223.5C 139.833,222.5 141.167,221.5 142.5,220.5 Z"/></g>
<g><path style="opacity:1" fill="#7b6143" d="M 146.5,222.5 C 145.833,223.833 144.833,224.833 143.5,225.5C 143.5,223.5 144.5,222.5 146.5,222.5 Z"/></g>
<g><path style="opacity:1" fill="#1e1e1e" d="M 161.5,225.5 C 162.833,225.5 164.167,225.5 165.5,225.5C 165.5,226.833 166.167,227.5 167.5,227.5C 170.875,228.991 174.208,230.824 177.5,233C 180.063,234.079 182.729,234.579 185.5,234.5C 186.183,236.176 187.517,236.843 189.5,236.5C 191.399,238.269 193.732,239.602 196.5,240.5C 181.178,241.666 165.844,241.833 150.5,241C 148.941,240.02 147.274,239.187 145.5,238.5C 144.479,237.099 143.479,235.765 142.5,234.5C 143.357,224.505 148.69,221.005 158.5,224C 159.244,225.039 160.244,225.539 161.5,225.5 Z"/></g>
<g><path style="opacity:0.992" fill="#362d23" d="M 138.5,223.5 C 138.167,224.833 137.833,226.167 137.5,227.5C 137.5,227.833 137.5,228.167 137.5,228.5C 136.518,231.962 136.185,235.629 136.5,239.5C 135.352,235.019 135.185,230.352 136,225.5C 136.708,224.619 137.542,223.953 138.5,223.5 Z"/></g>
<g><path style="opacity:1" fill="#a8845b" d="M 145.5,218.5 C 145.263,219.791 145.596,220.791 146.5,221.5C 146.5,221.833 146.5,222.167 146.5,222.5C 144.5,222.5 143.5,223.5 143.5,225.5C 141.431,229.044 141.098,232.71 142.5,236.5C 142.5,236.833 142.5,237.167 142.5,237.5C 143.557,241.448 142.557,242.115 139.5,239.5C 137.853,236.079 137.187,232.413 137.5,228.5C 137.5,228.167 137.5,227.833 137.5,227.5C 139.482,225.498 141.148,223.165 142.5,220.5C 142.5,219.833 142.833,219.5 143.5,219.5C 144.167,219.167 144.833,218.833 145.5,218.5 Z"/></g>
<g><path style="opacity:1" fill="#50402e" d="M 154.5,221.5 C 156.216,221.629 157.883,221.962 159.5,222.5C 160.167,223.5 160.833,224.5 161.5,225.5C 160.244,225.539 159.244,225.039 158.5,224C 148.69,221.005 143.357,224.505 142.5,234.5C 142.5,235.167 142.5,235.833 142.5,236.5C 141.098,232.71 141.431,229.044 143.5,225.5C 144.833,224.833 145.833,223.833 146.5,222.5C 149.127,221.908 151.794,221.575 154.5,221.5 Z"/></g>
<g><path style="opacity:1" fill="#634f38" d="M 208.5,224.5 C 208.833,224.5 209.167,224.5 209.5,224.5C 209.5,225.167 209.5,225.833 209.5,226.5C 208.833,226.5 208.167,226.5 207.5,226.5C 207.328,225.508 207.662,224.842 208.5,224.5 Z"/></g>
<g><path style="opacity:1" fill="#52412f" d="M 165.5,225.5 C 166.833,225.5 167.5,226.167 167.5,227.5C 167.5,226.167 166.833,225.5 165.5,225.5 Z"/></g>
<g><path style="opacity:1" fill="#806546" d="M 159.5,222.5 C 160.5,222.5 161.5,222.5 162.5,222.5C 165.566,223.873 168.566,225.54 171.5,227.5C 170.167,227.5 168.833,227.5 167.5,227.5C 167.5,226.167 166.833,225.5 165.5,225.5C 164.167,225.5 162.833,225.5 161.5,225.5C 160.833,224.5 160.167,223.5 159.5,222.5 Z"/></g>
<g><path style="opacity:1" fill="#5e4b36" d="M 175.5,224.5 C 178.626,224.485 181.293,225.485 183.5,227.5C 180.422,227.38 177.755,226.38 175.5,224.5 Z"/></g>
<g><path style="opacity:1" fill="#bc9365" d="M 209.5,226.5 C 210.586,226.62 211.253,227.287 211.5,228.5C 210.5,231.167 209.5,233.833 208.5,236.5C 207.614,235.675 207.281,234.675 207.5,233.5C 205.181,234.167 202.847,234.334 200.5,234C 201.416,233.722 202.082,233.222 202.5,232.5C 204.315,231.37 206.315,230.704 208.5,230.5C 208.433,229.041 208.766,227.708 209.5,226.5 Z"/></g>
<g><path style="opacity:1" fill="#574532" d="M 183.5,227.5 C 185.483,227.157 186.817,227.824 187.5,229.5C 185.847,229.34 184.514,228.674 183.5,227.5 Z"/></g>
<g><path style="opacity:1" fill="#604c36" d="M 207.5,227.5 C 207.5,228.833 206.833,229.5 205.5,229.5C 205.5,228.167 206.167,227.5 207.5,227.5 Z"/></g>
<g><path style="opacity:1" fill="#977752" d="M 207.5,226.5 C 208.167,226.5 208.833,226.5 209.5,226.5C 208.766,227.708 208.433,229.041 208.5,230.5C 206.315,230.704 204.315,231.37 202.5,232.5C 203.167,231.5 203.833,230.5 204.5,229.5C 204.833,229.5 205.167,229.5 205.5,229.5C 206.833,229.5 207.5,228.833 207.5,227.5C 207.5,227.167 207.5,226.833 207.5,226.5 Z"/></g>
<g><path style="opacity:0.992" fill="#443729" d="M 167.5,227.5 C 168.833,227.5 170.167,227.5 171.5,227.5C 174.19,228.546 176.857,229.546 179.5,230.5C 179.973,231.906 180.973,232.573 182.5,232.5C 183.167,232.5 183.833,232.5 184.5,232.5C 184.833,233.167 185.167,233.833 185.5,234.5C 182.729,234.579 180.063,234.079 177.5,233C 174.208,230.824 170.875,228.991 167.5,227.5 Z"/></g>
<g><path style="opacity:1" fill="#765d41" d="M 179.5,230.5 C 181.027,230.427 182.027,231.094 182.5,232.5C 180.973,232.573 179.973,231.906 179.5,230.5 Z"/></g>
<g><path style="opacity:1" fill="#5a4833" d="M 187.5,229.5 C 191.306,229.412 194.972,230.079 198.5,231.5C 200.173,229.914 202.173,229.247 204.5,229.5C 203.833,230.5 203.167,231.5 202.5,232.5C 196.958,233.228 191.958,232.228 187.5,229.5 Z"/></g>
<g><path style="opacity:1" fill="#785e42" d="M 184.5,232.5 C 186.179,232.285 187.179,232.952 187.5,234.5C 186.833,234.5 186.167,234.5 185.5,234.5C 185.167,233.833 184.833,233.167 184.5,232.5 Z"/></g>
<g><path style="opacity:1" fill="#765d41" d="M 212.5,232.5 C 212.573,234.027 211.906,235.027 210.5,235.5C 210.427,233.973 211.094,232.973 212.5,232.5 Z"/></g>
<g><path style="opacity:1" fill="#785f42" d="M 192.5,235.5 C 196.833,235.5 201.167,235.5 205.5,235.5C 205.715,237.179 205.048,238.179 203.5,238.5C 203.611,237.883 203.944,237.383 204.5,237C 202.613,236.22 200.946,236.387 199.5,237.5C 198.5,237.5 197.5,237.5 196.5,237.5C 195.167,236.833 193.833,236.167 192.5,235.5 Z"/></g>
<g><path style="opacity:1" fill="#614d37" d="M 137.5,228.5 C 137.187,232.413 137.853,236.079 139.5,239.5C 139.5,240.167 139.5,240.833 139.5,241.5C 138.5,240.833 137.5,240.167 136.5,239.5C 136.185,235.629 136.518,231.962 137.5,228.5 Z"/></g>
<g><path style="opacity:1" fill="#493b2c" d="M 185.5,234.5 C 186.167,234.5 186.833,234.5 187.5,234.5C 188.919,235.451 190.585,235.784 192.5,235.5C 193.833,236.167 195.167,236.833 196.5,237.5C 196.565,237.938 196.399,238.272 196,238.5C 193.846,237.77 191.679,237.103 189.5,236.5C 187.517,236.843 186.183,236.176 185.5,234.5 Z"/></g>
<g><path style="opacity:1" fill="#574532" d="M 203.5,238.5 C 202.833,238.833 202.167,239.167 201.5,239.5C 201.631,238.761 201.464,238.094 201,237.5C 200.31,238.738 199.81,238.738 199.5,237.5C 200.946,236.387 202.613,236.22 204.5,237C 203.944,237.383 203.611,237.883 203.5,238.5 Z"/></g>
<g><path style="opacity:1" fill="#7e6345" d="M 209.5,237.5 C 209.573,239.027 208.906,240.027 207.5,240.5C 207.427,238.973 208.094,237.973 209.5,237.5 Z"/></g>
<g><path style="opacity:1" fill="#4e3f2e" d="M 209.5,237.5 C 209.833,237.5 210.167,237.5 210.5,237.5C 210.631,240.367 209.297,242.033 206.5,242.5C 206.833,241.833 207.167,241.167 207.5,240.5C 208.906,240.027 209.573,239.027 209.5,237.5 Z"/></g>
<g><path style="opacity:1" fill="#3e3326" d="M 142.5,234.5 C 143.479,235.765 144.479,237.099 145.5,238.5C 147.274,239.187 148.941,240.02 150.5,241C 165.844,241.833 181.178,241.666 196.5,240.5C 193.732,239.602 191.399,238.269 189.5,236.5C 191.679,237.103 193.846,237.77 196,238.5C 196.399,238.272 196.565,237.938 196.5,237.5C 197.5,237.5 198.5,237.5 199.5,237.5C 199.81,238.738 200.31,238.738 201,237.5C 201.464,238.094 201.631,238.761 201.5,239.5C 200.167,240.167 199.167,241.167 198.5,242.5C 181.83,242.667 165.163,242.5 148.5,242C 147.756,240.961 146.756,240.461 145.5,240.5C 144.728,239.306 143.728,238.306 142.5,237.5C 142.5,237.167 142.5,236.833 142.5,236.5C 142.5,235.833 142.5,235.167 142.5,234.5 Z"/></g>
<g><path style="opacity:1" fill="#826647" d="M 203.5,238.5 C 202.461,240.531 200.795,241.864 198.5,242.5C 199.167,241.167 200.167,240.167 201.5,239.5C 202.167,239.167 202.833,238.833 203.5,238.5 Z"/></g>
<g><path style="opacity:1" fill="#403427" d="M 239.5,221.5 C 239.833,221.5 240.167,221.5 240.5,221.5C 240.825,228.687 240.491,235.687 239.5,242.5C 230.833,242.5 222.167,242.5 213.5,242.5C 221.984,241.507 230.651,241.174 239.5,241.5C 239.5,234.833 239.5,228.167 239.5,221.5 Z"/></g>
<g><path style="opacity:1" fill="#755c40" d="M 145.5,240.5 C 146.756,240.461 147.756,240.961 148.5,242C 165.163,242.5 181.83,242.667 198.5,242.5C 198.5,242.833 198.5,243.167 198.5,243.5C 181.5,243.5 164.5,243.5 147.5,243.5C 146.833,242.5 146.167,241.5 145.5,240.5 Z"/></g>
<g><path style="opacity:1" fill="#b08a5f" d="M 147.5,243.5 C 164.5,243.5 181.5,243.5 198.5,243.5C 199.791,243.263 200.791,243.596 201.5,244.5C 200.791,245.404 199.791,245.737 198.5,245.5C 182.532,246.621 166.532,246.788 150.5,246C 148.754,245.529 147.087,244.862 145.5,244C 146.094,243.536 146.761,243.369 147.5,243.5 Z"/></g>
<g><path style="opacity:1" fill="#5c4934" d="M 206.5,242.5 C 205.608,245.292 203.608,246.625 200.5,246.5C 199.833,246.5 199.167,246.5 198.5,246.5C 198.5,246.167 198.5,245.833 198.5,245.5C 199.791,245.737 200.791,245.404 201.5,244.5C 202.82,243.058 204.486,242.392 206.5,242.5 Z"/></g>
<g><path style="opacity:1" fill="#9e7c55" d="M 142.5,237.5 C 143.728,238.306 144.728,239.306 145.5,240.5C 146.167,241.5 146.833,242.5 147.5,243.5C 146.761,243.369 146.094,243.536 145.5,244C 147.087,244.862 148.754,245.529 150.5,246C 166.532,246.788 182.532,246.621 198.5,245.5C 198.5,245.833 198.5,246.167 198.5,246.5C 181.877,247.638 165.211,247.804 148.5,247C 146.593,245.878 144.593,245.045 142.5,244.5C 141.306,243.728 140.306,242.728 139.5,241.5C 139.5,240.833 139.5,240.167 139.5,239.5C 142.557,242.115 143.557,241.448 142.5,237.5 Z"/></g>
<g><path style="opacity:1" fill="#967651" d="M 240.5,220.5 C 241.827,228.235 241.827,236.068 240.5,244C 231.3,244.389 222.633,244.889 214.5,245.5C 223.81,246.498 233.143,246.832 242.5,246.5C 242.5,246.833 242.5,247.167 242.5,247.5C 232.5,247.5 222.5,247.5 212.5,247.5C 212.5,246.167 212.5,244.833 212.5,243.5C 221.682,243.827 230.682,243.493 239.5,242.5C 240.491,235.687 240.825,228.687 240.5,221.5C 240.5,221.167 240.5,220.833 240.5,220.5 Z"/></g>
<g><path style="opacity:1" fill="#614d37" d="M 142.5,244.5 C 144.593,245.045 146.593,245.878 148.5,247C 165.211,247.804 181.877,247.638 198.5,246.5C 198.389,247.117 198.056,247.617 197.5,248C 180.837,248.5 164.17,248.667 147.5,248.5C 145.174,247.855 143.507,246.522 142.5,244.5 Z"/></g>
<g><path style="opacity:1" fill="#624d38" d="M 213.5,242.5 C 222.167,242.5 230.833,242.5 239.5,242.5C 230.682,243.493 221.682,243.827 212.5,243.5C 212.5,244.833 212.5,246.167 212.5,247.5C 222.5,247.5 232.5,247.5 242.5,247.5C 243.5,247.5 244.5,247.5 245.5,247.5C 234.341,248.659 223.008,248.826 211.5,248C 210.091,245.391 210.758,243.558 213.5,242.5 Z"/></g>
<g><path style="opacity:0.992" fill="#2d2620" d="M 198.5,246.5 C 199.167,246.5 199.833,246.5 200.5,246.5C 200.196,247.15 199.863,247.817 199.5,248.5C 184.27,249.174 169.103,249.841 154,250.5C 151.723,249.883 149.556,249.216 147.5,248.5C 164.17,248.667 180.837,248.5 197.5,248C 198.056,247.617 198.389,247.117 198.5,246.5 Z"/></g>
</svg>
